<mxfile host="app.diagrams.net" agent="Mozilla/5.0 (Windows NT 10.0; Win64; x64) AppleWebKit/537.36 (KHTML, like Gecko) Chrome/137.0.0.0 Safari/537.36" version="27.2.0">
  <diagram name="PÃ¡gina-1" id="5hWvWP4HX-SFYnOjuCj5">
    <mxGraphModel dx="1426" dy="751" grid="1" gridSize="10" guides="1" tooltips="1" connect="1" arrows="1" fold="1" page="1" pageScale="1" pageWidth="827" pageHeight="1169" math="0" shadow="0">
      <root>
        <mxCell id="0" />
        <mxCell id="1" parent="0" />
        <mxCell id="bIbstpp4uyazpAWY5vHL-2" style="edgeStyle=orthogonalEdgeStyle;rounded=0;orthogonalLoop=1;jettySize=auto;html=1;exitX=0.5;exitY=0;exitDx=0;exitDy=0;entryX=0;entryY=0.5;entryDx=0;entryDy=0;" parent="1" source="1pu9NDr5MAKM0OqJgRPf-1" target="bIbstpp4uyazpAWY5vHL-1" edge="1">
          <mxGeometry relative="1" as="geometry" />
        </mxCell>
        <mxCell id="bIbstpp4uyazpAWY5vHL-123" style="edgeStyle=orthogonalEdgeStyle;rounded=0;orthogonalLoop=1;jettySize=auto;html=1;entryX=0;entryY=0.5;entryDx=0;entryDy=0;" parent="1" source="1pu9NDr5MAKM0OqJgRPf-1" target="bIbstpp4uyazpAWY5vHL-114" edge="1">
          <mxGeometry relative="1" as="geometry">
            <Array as="points">
              <mxPoint x="40" y="818" />
            </Array>
          </mxGeometry>
        </mxCell>
        <mxCell id="bIbstpp4uyazpAWY5vHL-124" style="edgeStyle=orthogonalEdgeStyle;rounded=0;orthogonalLoop=1;jettySize=auto;html=1;entryX=0;entryY=0.5;entryDx=0;entryDy=0;" parent="1" source="1pu9NDr5MAKM0OqJgRPf-1" target="bIbstpp4uyazpAWY5vHL-115" edge="1">
          <mxGeometry relative="1" as="geometry">
            <Array as="points">
              <mxPoint x="40" y="873" />
            </Array>
          </mxGeometry>
        </mxCell>
        <mxCell id="bIbstpp4uyazpAWY5vHL-125" style="edgeStyle=orthogonalEdgeStyle;rounded=0;orthogonalLoop=1;jettySize=auto;html=1;entryX=0;entryY=0.5;entryDx=0;entryDy=0;" parent="1" source="1pu9NDr5MAKM0OqJgRPf-1" target="bIbstpp4uyazpAWY5vHL-116" edge="1">
          <mxGeometry relative="1" as="geometry">
            <Array as="points">
              <mxPoint x="40" y="923" />
            </Array>
          </mxGeometry>
        </mxCell>
        <mxCell id="bIbstpp4uyazpAWY5vHL-126" style="edgeStyle=orthogonalEdgeStyle;rounded=0;orthogonalLoop=1;jettySize=auto;html=1;entryX=0;entryY=0.5;entryDx=0;entryDy=0;" parent="1" source="1pu9NDr5MAKM0OqJgRPf-1" target="bIbstpp4uyazpAWY5vHL-117" edge="1">
          <mxGeometry relative="1" as="geometry">
            <Array as="points">
              <mxPoint x="40" y="973" />
            </Array>
          </mxGeometry>
        </mxCell>
        <mxCell id="bIbstpp4uyazpAWY5vHL-135" style="edgeStyle=orthogonalEdgeStyle;rounded=0;orthogonalLoop=1;jettySize=auto;html=1;entryX=0;entryY=0.5;entryDx=0;entryDy=0;" parent="1" source="1pu9NDr5MAKM0OqJgRPf-1" target="bIbstpp4uyazpAWY5vHL-134" edge="1">
          <mxGeometry relative="1" as="geometry" />
        </mxCell>
        <mxCell id="1pu9NDr5MAKM0OqJgRPf-1" value="Cliente" style="whiteSpace=wrap;html=1;align=center;" parent="1" vertex="1">
          <mxGeometry x="13" y="360" width="100" height="40" as="geometry" />
        </mxCell>
        <mxCell id="bIbstpp4uyazpAWY5vHL-26" style="edgeStyle=orthogonalEdgeStyle;rounded=0;orthogonalLoop=1;jettySize=auto;html=1;exitX=0.5;exitY=1;exitDx=0;exitDy=0;entryX=0.5;entryY=0;entryDx=0;entryDy=0;" parent="1" source="1pu9NDr5MAKM0OqJgRPf-2" target="bIbstpp4uyazpAWY5vHL-24" edge="1">
          <mxGeometry relative="1" as="geometry" />
        </mxCell>
        <mxCell id="bIbstpp4uyazpAWY5vHL-73" style="edgeStyle=orthogonalEdgeStyle;rounded=0;orthogonalLoop=1;jettySize=auto;html=1;entryX=0;entryY=0.5;entryDx=0;entryDy=0;" parent="1" source="1pu9NDr5MAKM0OqJgRPf-2" target="bIbstpp4uyazpAWY5vHL-130" edge="1">
          <mxGeometry relative="1" as="geometry">
            <mxPoint x="570" y="85" as="targetPoint" />
          </mxGeometry>
        </mxCell>
        <mxCell id="bIbstpp4uyazpAWY5vHL-74" style="edgeStyle=orthogonalEdgeStyle;rounded=0;orthogonalLoop=1;jettySize=auto;html=1;entryX=0;entryY=0.5;entryDx=0;entryDy=0;" parent="1" source="1pu9NDr5MAKM0OqJgRPf-2" target="bIbstpp4uyazpAWY5vHL-131" edge="1">
          <mxGeometry relative="1" as="geometry">
            <mxPoint x="570" y="135" as="targetPoint" />
          </mxGeometry>
        </mxCell>
        <mxCell id="bIbstpp4uyazpAWY5vHL-139" style="edgeStyle=orthogonalEdgeStyle;rounded=0;orthogonalLoop=1;jettySize=auto;html=1;entryX=0;entryY=0.5;entryDx=0;entryDy=0;" parent="1" source="1pu9NDr5MAKM0OqJgRPf-2" target="bIbstpp4uyazpAWY5vHL-138" edge="1">
          <mxGeometry relative="1" as="geometry" />
        </mxCell>
        <mxCell id="bIbstpp4uyazpAWY5vHL-148" style="edgeStyle=orthogonalEdgeStyle;rounded=0;orthogonalLoop=1;jettySize=auto;html=1;entryX=0;entryY=0.5;entryDx=0;entryDy=0;" parent="1" source="1pu9NDr5MAKM0OqJgRPf-2" target="bIbstpp4uyazpAWY5vHL-147" edge="1">
          <mxGeometry relative="1" as="geometry" />
        </mxCell>
        <mxCell id="1pu9NDr5MAKM0OqJgRPf-2" value="Pedido" style="shape=ext;margin=3;double=1;whiteSpace=wrap;html=1;align=center;" parent="1" vertex="1">
          <mxGeometry x="421.5" y="65" width="100" height="40" as="geometry" />
        </mxCell>
        <mxCell id="bIbstpp4uyazpAWY5vHL-127" style="edgeStyle=orthogonalEdgeStyle;rounded=0;orthogonalLoop=1;jettySize=auto;html=1;entryX=0;entryY=0.5;entryDx=0;entryDy=0;" parent="1" source="1pu9NDr5MAKM0OqJgRPf-3" target="bIbstpp4uyazpAWY5vHL-94" edge="1">
          <mxGeometry relative="1" as="geometry" />
        </mxCell>
        <mxCell id="bIbstpp4uyazpAWY5vHL-129" style="edgeStyle=orthogonalEdgeStyle;rounded=0;orthogonalLoop=1;jettySize=auto;html=1;entryX=0;entryY=0.5;entryDx=0;entryDy=0;" parent="1" source="1pu9NDr5MAKM0OqJgRPf-3" target="bIbstpp4uyazpAWY5vHL-95" edge="1">
          <mxGeometry relative="1" as="geometry" />
        </mxCell>
        <mxCell id="bIbstpp4uyazpAWY5vHL-137" style="edgeStyle=orthogonalEdgeStyle;rounded=0;orthogonalLoop=1;jettySize=auto;html=1;entryX=0;entryY=0.5;entryDx=0;entryDy=0;" parent="1" source="1pu9NDr5MAKM0OqJgRPf-3" target="bIbstpp4uyazpAWY5vHL-136" edge="1">
          <mxGeometry relative="1" as="geometry" />
        </mxCell>
        <mxCell id="1pu9NDr5MAKM0OqJgRPf-3" value="Editorial" style="whiteSpace=wrap;html=1;align=center;" parent="1" vertex="1">
          <mxGeometry x="424" y="724" width="100" height="40" as="geometry" />
        </mxCell>
        <mxCell id="bIbstpp4uyazpAWY5vHL-144" style="edgeStyle=orthogonalEdgeStyle;rounded=0;orthogonalLoop=1;jettySize=auto;html=1;exitX=0.5;exitY=1;exitDx=0;exitDy=0;" parent="1" source="1pu9NDr5MAKM0OqJgRPf-4" edge="1">
          <mxGeometry relative="1" as="geometry">
            <mxPoint x="769.5" y="479.0000000000001" as="targetPoint" />
          </mxGeometry>
        </mxCell>
        <mxCell id="bIbstpp4uyazpAWY5vHL-145" style="edgeStyle=orthogonalEdgeStyle;rounded=0;orthogonalLoop=1;jettySize=auto;html=1;entryX=0;entryY=0.5;entryDx=0;entryDy=0;" parent="1" source="1pu9NDr5MAKM0OqJgRPf-4" target="bIbstpp4uyazpAWY5vHL-142" edge="1">
          <mxGeometry relative="1" as="geometry" />
        </mxCell>
        <mxCell id="bIbstpp4uyazpAWY5vHL-146" style="edgeStyle=orthogonalEdgeStyle;rounded=0;orthogonalLoop=1;jettySize=auto;html=1;entryX=0;entryY=0.5;entryDx=0;entryDy=0;" parent="1" source="1pu9NDr5MAKM0OqJgRPf-4" target="bIbstpp4uyazpAWY5vHL-132" edge="1">
          <mxGeometry relative="1" as="geometry" />
        </mxCell>
        <mxCell id="bIbstpp4uyazpAWY5vHL-162" style="edgeStyle=orthogonalEdgeStyle;rounded=0;orthogonalLoop=1;jettySize=auto;html=1;entryX=0;entryY=0.5;entryDx=0;entryDy=0;" parent="1" source="1pu9NDr5MAKM0OqJgRPf-4" target="bIbstpp4uyazpAWY5vHL-161" edge="1">
          <mxGeometry relative="1" as="geometry" />
        </mxCell>
        <mxCell id="1pu9NDr5MAKM0OqJgRPf-4" value="Inventario" style="shape=ext;margin=3;double=1;whiteSpace=wrap;html=1;align=center;" parent="1" vertex="1">
          <mxGeometry x="719.5" y="439" width="100" height="40" as="geometry" />
        </mxCell>
        <mxCell id="bIbstpp4uyazpAWY5vHL-12" style="edgeStyle=orthogonalEdgeStyle;rounded=0;orthogonalLoop=1;jettySize=auto;html=1;exitX=0.5;exitY=1;exitDx=0;exitDy=0;entryX=0.5;entryY=0;entryDx=0;entryDy=0;" parent="1" source="1pu9NDr5MAKM0OqJgRPf-5" edge="1">
          <mxGeometry relative="1" as="geometry">
            <mxPoint x="474" y="569" as="targetPoint" />
          </mxGeometry>
        </mxCell>
        <mxCell id="bIbstpp4uyazpAWY5vHL-20" value="" style="edgeStyle=orthogonalEdgeStyle;rounded=0;orthogonalLoop=1;jettySize=auto;html=1;" parent="1" source="1pu9NDr5MAKM0OqJgRPf-5" target="bIbstpp4uyazpAWY5vHL-16" edge="1">
          <mxGeometry relative="1" as="geometry" />
        </mxCell>
        <mxCell id="bIbstpp4uyazpAWY5vHL-103" style="edgeStyle=orthogonalEdgeStyle;rounded=0;orthogonalLoop=1;jettySize=auto;html=1;entryX=1;entryY=0.5;entryDx=0;entryDy=0;" parent="1" source="1pu9NDr5MAKM0OqJgRPf-5" target="bIbstpp4uyazpAWY5vHL-96" edge="1">
          <mxGeometry relative="1" as="geometry" />
        </mxCell>
        <mxCell id="bIbstpp4uyazpAWY5vHL-104" style="edgeStyle=orthogonalEdgeStyle;rounded=0;orthogonalLoop=1;jettySize=auto;html=1;entryX=1;entryY=0.5;entryDx=0;entryDy=0;" parent="1" source="1pu9NDr5MAKM0OqJgRPf-5" target="bIbstpp4uyazpAWY5vHL-97" edge="1">
          <mxGeometry relative="1" as="geometry" />
        </mxCell>
        <mxCell id="bIbstpp4uyazpAWY5vHL-105" style="edgeStyle=orthogonalEdgeStyle;rounded=0;orthogonalLoop=1;jettySize=auto;html=1;entryX=1;entryY=0.5;entryDx=0;entryDy=0;" parent="1" source="1pu9NDr5MAKM0OqJgRPf-5" target="bIbstpp4uyazpAWY5vHL-98" edge="1">
          <mxGeometry relative="1" as="geometry" />
        </mxCell>
        <mxCell id="bIbstpp4uyazpAWY5vHL-106" style="edgeStyle=orthogonalEdgeStyle;rounded=0;orthogonalLoop=1;jettySize=auto;html=1;entryX=1;entryY=0.5;entryDx=0;entryDy=0;" parent="1" source="1pu9NDr5MAKM0OqJgRPf-5" target="bIbstpp4uyazpAWY5vHL-99" edge="1">
          <mxGeometry relative="1" as="geometry" />
        </mxCell>
        <mxCell id="bIbstpp4uyazpAWY5vHL-107" style="edgeStyle=orthogonalEdgeStyle;rounded=0;orthogonalLoop=1;jettySize=auto;html=1;entryX=1;entryY=0.5;entryDx=0;entryDy=0;" parent="1" source="1pu9NDr5MAKM0OqJgRPf-5" target="bIbstpp4uyazpAWY5vHL-100" edge="1">
          <mxGeometry relative="1" as="geometry" />
        </mxCell>
        <mxCell id="bIbstpp4uyazpAWY5vHL-108" style="edgeStyle=orthogonalEdgeStyle;rounded=0;orthogonalLoop=1;jettySize=auto;html=1;entryX=1;entryY=0.5;entryDx=0;entryDy=0;" parent="1" source="1pu9NDr5MAKM0OqJgRPf-5" target="bIbstpp4uyazpAWY5vHL-101" edge="1">
          <mxGeometry relative="1" as="geometry" />
        </mxCell>
        <mxCell id="bIbstpp4uyazpAWY5vHL-141" style="edgeStyle=orthogonalEdgeStyle;rounded=0;orthogonalLoop=1;jettySize=auto;html=1;entryX=1;entryY=0.5;entryDx=0;entryDy=0;" parent="1" source="1pu9NDr5MAKM0OqJgRPf-5" target="bIbstpp4uyazpAWY5vHL-140" edge="1">
          <mxGeometry relative="1" as="geometry" />
        </mxCell>
        <mxCell id="bIbstpp4uyazpAWY5vHL-160" style="edgeStyle=orthogonalEdgeStyle;rounded=0;orthogonalLoop=1;jettySize=auto;html=1;entryX=1;entryY=0.5;entryDx=0;entryDy=0;" parent="1" source="1pu9NDr5MAKM0OqJgRPf-5" target="bIbstpp4uyazpAWY5vHL-159" edge="1">
          <mxGeometry relative="1" as="geometry" />
        </mxCell>
        <mxCell id="1pu9NDr5MAKM0OqJgRPf-5" value="Libro" style="shape=ext;margin=3;double=1;whiteSpace=wrap;html=1;align=center;" parent="1" vertex="1">
          <mxGeometry x="424" y="439" width="100" height="40" as="geometry" />
        </mxCell>
        <mxCell id="bIbstpp4uyazpAWY5vHL-3" style="edgeStyle=orthogonalEdgeStyle;rounded=0;orthogonalLoop=1;jettySize=auto;html=1;exitX=1;exitY=0.5;exitDx=0;exitDy=0;entryX=0;entryY=0.5;entryDx=0;entryDy=0;" parent="1" source="bIbstpp4uyazpAWY5vHL-1" target="1pu9NDr5MAKM0OqJgRPf-2" edge="1">
          <mxGeometry relative="1" as="geometry" />
        </mxCell>
        <mxCell id="bIbstpp4uyazpAWY5vHL-1" value="Realiza" style="shape=rhombus;perimeter=rhombusPerimeter;whiteSpace=wrap;html=1;align=center;" parent="1" vertex="1">
          <mxGeometry x="140" y="55" width="120" height="60" as="geometry" />
        </mxCell>
        <mxCell id="bIbstpp4uyazpAWY5vHL-4" value="(1:1)" style="text;strokeColor=none;align=center;fillColor=none;html=1;verticalAlign=middle;whiteSpace=wrap;rounded=0;" parent="1" vertex="1">
          <mxGeometry x="73" y="320" width="60" height="30" as="geometry" />
        </mxCell>
        <mxCell id="bIbstpp4uyazpAWY5vHL-5" value="(0:N)" style="text;strokeColor=none;align=center;fillColor=none;html=1;verticalAlign=middle;whiteSpace=wrap;rounded=0;" parent="1" vertex="1">
          <mxGeometry x="303" y="60" width="60" height="30" as="geometry" />
        </mxCell>
        <mxCell id="bIbstpp4uyazpAWY5vHL-9" value="(1:1)" style="text;strokeColor=none;align=center;fillColor=none;html=1;verticalAlign=middle;whiteSpace=wrap;rounded=0;" parent="1" vertex="1">
          <mxGeometry x="470" y="105" width="60" height="30" as="geometry" />
        </mxCell>
        <mxCell id="bIbstpp4uyazpAWY5vHL-10" value="(1:1)" style="text;strokeColor=none;align=center;fillColor=none;html=1;verticalAlign=middle;whiteSpace=wrap;rounded=0;" parent="1" vertex="1">
          <mxGeometry x="472.5" y="410" width="60" height="30" as="geometry" />
        </mxCell>
        <mxCell id="bIbstpp4uyazpAWY5vHL-149" value="" style="edgeStyle=orthogonalEdgeStyle;rounded=0;orthogonalLoop=1;jettySize=auto;html=1;" parent="1" source="bIbstpp4uyazpAWY5vHL-11" target="1pu9NDr5MAKM0OqJgRPf-3" edge="1">
          <mxGeometry relative="1" as="geometry" />
        </mxCell>
        <mxCell id="bIbstpp4uyazpAWY5vHL-11" value="Pertenece" style="shape=rhombus;perimeter=rhombusPerimeter;whiteSpace=wrap;html=1;align=center;" parent="1" vertex="1">
          <mxGeometry x="414" y="554" width="120" height="60" as="geometry" />
        </mxCell>
        <mxCell id="bIbstpp4uyazpAWY5vHL-14" value="(1:N)" style="text;strokeColor=none;align=center;fillColor=none;html=1;verticalAlign=middle;whiteSpace=wrap;rounded=0;" parent="1" vertex="1">
          <mxGeometry x="470" y="494" width="60" height="30" as="geometry" />
        </mxCell>
        <mxCell id="bIbstpp4uyazpAWY5vHL-15" value="(1:1)" style="text;strokeColor=none;align=center;fillColor=none;html=1;verticalAlign=middle;whiteSpace=wrap;rounded=0;" parent="1" vertex="1">
          <mxGeometry x="474" y="687.5" width="60" height="30" as="geometry" />
        </mxCell>
        <mxCell id="bIbstpp4uyazpAWY5vHL-21" value="" style="edgeStyle=orthogonalEdgeStyle;rounded=0;orthogonalLoop=1;jettySize=auto;html=1;" parent="1" target="1pu9NDr5MAKM0OqJgRPf-4" edge="1">
          <mxGeometry relative="1" as="geometry">
            <mxPoint x="662.5" y="459.0000000000001" as="sourcePoint" />
          </mxGeometry>
        </mxCell>
        <mxCell id="bIbstpp4uyazpAWY5vHL-16" value="Existe" style="shape=rhombus;perimeter=rhombusPerimeter;whiteSpace=wrap;html=1;align=center;" parent="1" vertex="1">
          <mxGeometry x="592.5" y="434" width="80" height="50" as="geometry" />
        </mxCell>
        <mxCell id="bIbstpp4uyazpAWY5vHL-22" value="(1:N)" style="text;strokeColor=none;align=center;fillColor=none;html=1;verticalAlign=middle;whiteSpace=wrap;rounded=0;" parent="1" vertex="1">
          <mxGeometry x="532.5" y="429" width="60" height="30" as="geometry" />
        </mxCell>
        <mxCell id="bIbstpp4uyazpAWY5vHL-23" value="(0:1)" style="text;strokeColor=none;align=center;fillColor=none;html=1;verticalAlign=middle;whiteSpace=wrap;rounded=0;" parent="1" vertex="1">
          <mxGeometry x="662.5" y="429" width="60" height="30" as="geometry" />
        </mxCell>
        <mxCell id="bIbstpp4uyazpAWY5vHL-27" style="edgeStyle=orthogonalEdgeStyle;rounded=0;orthogonalLoop=1;jettySize=auto;html=1;exitX=0.5;exitY=1;exitDx=0;exitDy=0;entryX=0.5;entryY=0;entryDx=0;entryDy=0;" parent="1" source="bIbstpp4uyazpAWY5vHL-24" target="1pu9NDr5MAKM0OqJgRPf-5" edge="1">
          <mxGeometry relative="1" as="geometry" />
        </mxCell>
        <mxCell id="bIbstpp4uyazpAWY5vHL-153" style="edgeStyle=orthogonalEdgeStyle;rounded=0;orthogonalLoop=1;jettySize=auto;html=1;entryX=0;entryY=0.5;entryDx=0;entryDy=0;" parent="1" source="bIbstpp4uyazpAWY5vHL-24" target="bIbstpp4uyazpAWY5vHL-150" edge="1">
          <mxGeometry relative="1" as="geometry" />
        </mxCell>
        <mxCell id="bIbstpp4uyazpAWY5vHL-154" style="edgeStyle=orthogonalEdgeStyle;rounded=0;orthogonalLoop=1;jettySize=auto;html=1;entryX=0;entryY=0.5;entryDx=0;entryDy=0;" parent="1" source="bIbstpp4uyazpAWY5vHL-24" target="bIbstpp4uyazpAWY5vHL-151" edge="1">
          <mxGeometry relative="1" as="geometry" />
        </mxCell>
        <mxCell id="bIbstpp4uyazpAWY5vHL-158" style="edgeStyle=orthogonalEdgeStyle;rounded=0;orthogonalLoop=1;jettySize=auto;html=1;entryX=0;entryY=0.5;entryDx=0;entryDy=0;" parent="1" source="bIbstpp4uyazpAWY5vHL-24" target="bIbstpp4uyazpAWY5vHL-157" edge="1">
          <mxGeometry relative="1" as="geometry" />
        </mxCell>
        <mxCell id="bIbstpp4uyazpAWY5vHL-164" style="edgeStyle=orthogonalEdgeStyle;rounded=0;orthogonalLoop=1;jettySize=auto;html=1;entryX=0;entryY=0.5;entryDx=0;entryDy=0;" parent="1" source="bIbstpp4uyazpAWY5vHL-24" target="bIbstpp4uyazpAWY5vHL-163" edge="1">
          <mxGeometry relative="1" as="geometry" />
        </mxCell>
        <mxCell id="bIbstpp4uyazpAWY5vHL-24" value="Contiene" style="shape=associativeEntity;whiteSpace=wrap;html=1;align=center;" parent="1" vertex="1">
          <mxGeometry x="414" y="224" width="117" height="50" as="geometry" />
        </mxCell>
        <mxCell id="bIbstpp4uyazpAWY5vHL-28" value="Items" style="text;strokeColor=none;align=center;fillColor=none;html=1;verticalAlign=middle;whiteSpace=wrap;rounded=0;fontSize=9;" parent="1" vertex="1">
          <mxGeometry x="409" y="222" width="40" height="20" as="geometry" />
        </mxCell>
        <mxCell id="bIbstpp4uyazpAWY5vHL-29" value="(1:N)" style="text;strokeColor=none;align=center;fillColor=none;html=1;verticalAlign=middle;whiteSpace=wrap;rounded=0;" parent="1" vertex="1">
          <mxGeometry x="471" y="194" width="60" height="30" as="geometry" />
        </mxCell>
        <mxCell id="bIbstpp4uyazpAWY5vHL-30" value="(1:N)" style="text;strokeColor=none;align=center;fillColor=none;html=1;verticalAlign=middle;whiteSpace=wrap;rounded=0;" parent="1" vertex="1">
          <mxGeometry x="471" y="273" width="60" height="30" as="geometry" />
        </mxCell>
        <mxCell id="bIbstpp4uyazpAWY5vHL-46" value="Calle" style="ellipse;whiteSpace=wrap;html=1;align=center;dashed=1;" parent="1" vertex="1">
          <mxGeometry x="270" y="860" width="100" height="40" as="geometry" />
        </mxCell>
        <mxCell id="bIbstpp4uyazpAWY5vHL-47" value="Barrio" style="ellipse;whiteSpace=wrap;html=1;align=center;dashed=1;" parent="1" vertex="1">
          <mxGeometry x="270" y="910" width="100" height="40" as="geometry" />
        </mxCell>
        <mxCell id="bIbstpp4uyazpAWY5vHL-48" value="Ciudad" style="ellipse;whiteSpace=wrap;html=1;align=center;dashed=1;" parent="1" vertex="1">
          <mxGeometry x="270" y="960" width="100" height="40" as="geometry" />
        </mxCell>
        <mxCell id="bIbstpp4uyazpAWY5vHL-49" value="Estado" style="ellipse;whiteSpace=wrap;html=1;align=center;dashed=1;" parent="1" vertex="1">
          <mxGeometry x="270" y="1010" width="100" height="40" as="geometry" />
        </mxCell>
        <mxCell id="bIbstpp4uyazpAWY5vHL-59" style="edgeStyle=orthogonalEdgeStyle;rounded=0;orthogonalLoop=1;jettySize=auto;html=1;exitX=0.01;exitY=0.97;exitDx=0;exitDy=0;exitPerimeter=0;entryX=0.5;entryY=0;entryDx=0;entryDy=0;" parent="1" source="bIbstpp4uyazpAWY5vHL-54" edge="1">
          <mxGeometry relative="1" as="geometry">
            <mxPoint x="140" y="580" as="targetPoint" />
          </mxGeometry>
        </mxCell>
        <mxCell id="bIbstpp4uyazpAWY5vHL-60" style="edgeStyle=orthogonalEdgeStyle;rounded=0;orthogonalLoop=1;jettySize=auto;html=1;exitX=0.99;exitY=0.97;exitDx=0;exitDy=0;exitPerimeter=0;entryX=0.5;entryY=0;entryDx=0;entryDy=0;" parent="1" source="bIbstpp4uyazpAWY5vHL-54" target="bIbstpp4uyazpAWY5vHL-58" edge="1">
          <mxGeometry relative="1" as="geometry" />
        </mxCell>
        <mxCell id="bIbstpp4uyazpAWY5vHL-54" value="ID" style="strokeWidth=2;html=1;shape=mxgraph.flowchart.extract_or_measurement;whiteSpace=wrap;" parent="1" vertex="1">
          <mxGeometry x="160" y="500" width="80" height="50" as="geometry" />
        </mxCell>
        <mxCell id="bIbstpp4uyazpAWY5vHL-56" style="edgeStyle=orthogonalEdgeStyle;rounded=0;orthogonalLoop=1;jettySize=auto;html=1;exitX=1;exitY=0.5;exitDx=0;exitDy=0;entryX=0.5;entryY=0;entryDx=0;entryDy=0;entryPerimeter=0;" parent="1" source="1pu9NDr5MAKM0OqJgRPf-1" target="bIbstpp4uyazpAWY5vHL-54" edge="1">
          <mxGeometry relative="1" as="geometry" />
        </mxCell>
        <mxCell id="bIbstpp4uyazpAWY5vHL-67" style="edgeStyle=orthogonalEdgeStyle;rounded=0;orthogonalLoop=1;jettySize=auto;html=1;entryX=0;entryY=0.5;entryDx=0;entryDy=0;exitX=0;exitY=0.5;exitDx=0;exitDy=0;" parent="1" source="bIbstpp4uyazpAWY5vHL-57" target="bIbstpp4uyazpAWY5vHL-61" edge="1">
          <mxGeometry relative="1" as="geometry">
            <mxPoint x="143" y="610" as="sourcePoint" />
          </mxGeometry>
        </mxCell>
        <mxCell id="bIbstpp4uyazpAWY5vHL-68" style="edgeStyle=orthogonalEdgeStyle;rounded=0;orthogonalLoop=1;jettySize=auto;html=1;entryX=0;entryY=0.5;entryDx=0;entryDy=0;exitX=0;exitY=0.5;exitDx=0;exitDy=0;" parent="1" source="bIbstpp4uyazpAWY5vHL-57" target="bIbstpp4uyazpAWY5vHL-62" edge="1">
          <mxGeometry relative="1" as="geometry">
            <mxPoint x="143" y="610" as="sourcePoint" />
          </mxGeometry>
        </mxCell>
        <mxCell id="bIbstpp4uyazpAWY5vHL-57" value="PN" style="rounded=1;arcSize=10;whiteSpace=wrap;html=1;align=center;" parent="1" vertex="1">
          <mxGeometry x="113" y="580" width="80" height="30" as="geometry" />
        </mxCell>
        <mxCell id="bIbstpp4uyazpAWY5vHL-69" style="edgeStyle=orthogonalEdgeStyle;rounded=0;orthogonalLoop=1;jettySize=auto;html=1;entryX=0;entryY=0.5;entryDx=0;entryDy=0;" parent="1" source="bIbstpp4uyazpAWY5vHL-58" target="bIbstpp4uyazpAWY5vHL-63" edge="1">
          <mxGeometry relative="1" as="geometry" />
        </mxCell>
        <mxCell id="bIbstpp4uyazpAWY5vHL-58" value="PJ" style="rounded=1;arcSize=10;whiteSpace=wrap;html=1;align=center;" parent="1" vertex="1">
          <mxGeometry x="220" y="580" width="80" height="30" as="geometry" />
        </mxCell>
        <mxCell id="bIbstpp4uyazpAWY5vHL-61" value="DNI" style="ellipse;whiteSpace=wrap;html=1;align=center;" parent="1" vertex="1">
          <mxGeometry x="140" y="647.5" width="100" height="40" as="geometry" />
        </mxCell>
        <mxCell id="bIbstpp4uyazpAWY5vHL-62" value="RUT" style="ellipse;whiteSpace=wrap;html=1;align=center;" parent="1" vertex="1">
          <mxGeometry x="140" y="702.5" width="100" height="40" as="geometry" />
        </mxCell>
        <mxCell id="bIbstpp4uyazpAWY5vHL-63" value="NIT" style="ellipse;whiteSpace=wrap;html=1;align=center;" parent="1" vertex="1">
          <mxGeometry x="283" y="647.5" width="100" height="40" as="geometry" />
        </mxCell>
        <mxCell id="bIbstpp4uyazpAWY5vHL-64" value="RUES" style="ellipse;whiteSpace=wrap;html=1;align=center;" parent="1" vertex="1">
          <mxGeometry x="283" y="702.5" width="100" height="40" as="geometry" />
        </mxCell>
        <mxCell id="bIbstpp4uyazpAWY5vHL-70" style="edgeStyle=orthogonalEdgeStyle;rounded=0;orthogonalLoop=1;jettySize=auto;html=1;entryX=0;entryY=0.688;entryDx=0;entryDy=0;entryPerimeter=0;" parent="1" source="bIbstpp4uyazpAWY5vHL-58" target="bIbstpp4uyazpAWY5vHL-64" edge="1">
          <mxGeometry relative="1" as="geometry" />
        </mxCell>
        <mxCell id="bIbstpp4uyazpAWY5vHL-93" value="Nombre Contacto" style="ellipse;whiteSpace=wrap;html=1;align=center;" parent="1" vertex="1">
          <mxGeometry x="514" y="876.5" width="100" height="40" as="geometry" />
        </mxCell>
        <mxCell id="bIbstpp4uyazpAWY5vHL-112" style="edgeStyle=orthogonalEdgeStyle;rounded=0;orthogonalLoop=1;jettySize=auto;html=1;exitX=1;exitY=0.5;exitDx=0;exitDy=0;entryX=0;entryY=0.5;entryDx=0;entryDy=0;" parent="1" source="bIbstpp4uyazpAWY5vHL-94" target="bIbstpp4uyazpAWY5vHL-110" edge="1">
          <mxGeometry relative="1" as="geometry" />
        </mxCell>
        <mxCell id="bIbstpp4uyazpAWY5vHL-113" style="edgeStyle=orthogonalEdgeStyle;rounded=0;orthogonalLoop=1;jettySize=auto;html=1;entryX=0;entryY=0.5;entryDx=0;entryDy=0;" parent="1" source="bIbstpp4uyazpAWY5vHL-94" target="bIbstpp4uyazpAWY5vHL-111" edge="1">
          <mxGeometry relative="1" as="geometry" />
        </mxCell>
        <mxCell id="bIbstpp4uyazpAWY5vHL-94" value="Telefono" style="ellipse;whiteSpace=wrap;html=1;align=center;" parent="1" vertex="1">
          <mxGeometry x="514" y="816.5" width="100" height="40" as="geometry" />
        </mxCell>
        <mxCell id="bIbstpp4uyazpAWY5vHL-95" value="E-mail" style="ellipse;whiteSpace=wrap;html=1;align=center;" parent="1" vertex="1">
          <mxGeometry x="514" y="936.5" width="100" height="40" as="geometry" />
        </mxCell>
        <mxCell id="bIbstpp4uyazpAWY5vHL-96" value="Titulo" style="ellipse;whiteSpace=wrap;html=1;align=center;" parent="1" vertex="1">
          <mxGeometry x="263" y="134" width="100" height="40" as="geometry" />
        </mxCell>
        <mxCell id="bIbstpp4uyazpAWY5vHL-97" value="Categoria" style="ellipse;whiteSpace=wrap;html=1;align=center;" parent="1" vertex="1">
          <mxGeometry x="260" y="180" width="100" height="40" as="geometry" />
        </mxCell>
        <mxCell id="bIbstpp4uyazpAWY5vHL-98" value="ISBN" style="ellipse;whiteSpace=wrap;html=1;align=center;" parent="1" vertex="1">
          <mxGeometry x="263" y="224" width="100" height="40" as="geometry" />
        </mxCell>
        <mxCell id="bIbstpp4uyazpAWY5vHL-99" value="AÃ±o PublicaciÃ³n" style="ellipse;whiteSpace=wrap;html=1;align=center;" parent="1" vertex="1">
          <mxGeometry x="263" y="269" width="100" height="40" as="geometry" />
        </mxCell>
        <mxCell id="bIbstpp4uyazpAWY5vHL-100" value="Editorial" style="ellipse;whiteSpace=wrap;html=1;align=center;" parent="1" vertex="1">
          <mxGeometry x="263" y="319" width="100" height="40" as="geometry" />
        </mxCell>
        <mxCell id="bIbstpp4uyazpAWY5vHL-101" value="Valor" style="ellipse;whiteSpace=wrap;html=1;align=center;" parent="1" vertex="1">
          <mxGeometry x="263" y="369" width="100" height="40" as="geometry" />
        </mxCell>
        <mxCell id="bIbstpp4uyazpAWY5vHL-102" value="Autor" style="ellipse;whiteSpace=wrap;html=1;align=center;" parent="1" vertex="1">
          <mxGeometry x="263" y="424" width="100" height="40" as="geometry" />
        </mxCell>
        <mxCell id="bIbstpp4uyazpAWY5vHL-109" style="edgeStyle=orthogonalEdgeStyle;rounded=0;orthogonalLoop=1;jettySize=auto;html=1;entryX=0.998;entryY=0.704;entryDx=0;entryDy=0;entryPerimeter=0;" parent="1" source="1pu9NDr5MAKM0OqJgRPf-5" target="bIbstpp4uyazpAWY5vHL-102" edge="1">
          <mxGeometry relative="1" as="geometry" />
        </mxCell>
        <mxCell id="bIbstpp4uyazpAWY5vHL-110" value="Telefono 1" style="ellipse;whiteSpace=wrap;html=1;align=center;dashed=1;" parent="1" vertex="1">
          <mxGeometry x="651" y="799" width="100" height="40" as="geometry" />
        </mxCell>
        <mxCell id="bIbstpp4uyazpAWY5vHL-111" value="Telefono 2" style="ellipse;whiteSpace=wrap;html=1;align=center;dashed=1;" parent="1" vertex="1">
          <mxGeometry x="651" y="846.5" width="100" height="40" as="geometry" />
        </mxCell>
        <mxCell id="bIbstpp4uyazpAWY5vHL-114" value="Nombre" style="ellipse;whiteSpace=wrap;html=1;align=center;" parent="1" vertex="1">
          <mxGeometry x="130" y="797.5" width="100" height="40" as="geometry" />
        </mxCell>
        <mxCell id="bIbstpp4uyazpAWY5vHL-118" style="edgeStyle=orthogonalEdgeStyle;rounded=0;orthogonalLoop=1;jettySize=auto;html=1;entryX=0;entryY=0.5;entryDx=0;entryDy=0;" parent="1" source="bIbstpp4uyazpAWY5vHL-115" target="bIbstpp4uyazpAWY5vHL-46" edge="1">
          <mxGeometry relative="1" as="geometry" />
        </mxCell>
        <mxCell id="bIbstpp4uyazpAWY5vHL-119" style="edgeStyle=orthogonalEdgeStyle;rounded=0;orthogonalLoop=1;jettySize=auto;html=1;entryX=0;entryY=0.5;entryDx=0;entryDy=0;" parent="1" source="bIbstpp4uyazpAWY5vHL-115" target="bIbstpp4uyazpAWY5vHL-47" edge="1">
          <mxGeometry relative="1" as="geometry" />
        </mxCell>
        <mxCell id="bIbstpp4uyazpAWY5vHL-120" style="edgeStyle=orthogonalEdgeStyle;rounded=0;orthogonalLoop=1;jettySize=auto;html=1;entryX=0;entryY=0.5;entryDx=0;entryDy=0;" parent="1" source="bIbstpp4uyazpAWY5vHL-115" target="bIbstpp4uyazpAWY5vHL-48" edge="1">
          <mxGeometry relative="1" as="geometry" />
        </mxCell>
        <mxCell id="bIbstpp4uyazpAWY5vHL-122" style="edgeStyle=orthogonalEdgeStyle;rounded=0;orthogonalLoop=1;jettySize=auto;html=1;entryX=0;entryY=0.5;entryDx=0;entryDy=0;" parent="1" source="bIbstpp4uyazpAWY5vHL-115" target="bIbstpp4uyazpAWY5vHL-49" edge="1">
          <mxGeometry relative="1" as="geometry" />
        </mxCell>
        <mxCell id="bIbstpp4uyazpAWY5vHL-115" value="DirecciÃ³n" style="ellipse;whiteSpace=wrap;html=1;align=center;" parent="1" vertex="1">
          <mxGeometry x="130" y="852.5" width="100" height="40" as="geometry" />
        </mxCell>
        <mxCell id="bIbstpp4uyazpAWY5vHL-116" value="Telefono" style="ellipse;whiteSpace=wrap;html=1;align=center;" parent="1" vertex="1">
          <mxGeometry x="131.5" y="902.5" width="100" height="40" as="geometry" />
        </mxCell>
        <mxCell id="bIbstpp4uyazpAWY5vHL-117" value="E-mail" style="ellipse;whiteSpace=wrap;html=1;align=center;" parent="1" vertex="1">
          <mxGeometry x="131.5" y="952.5" width="100" height="40" as="geometry" />
        </mxCell>
        <mxCell id="bIbstpp4uyazpAWY5vHL-128" style="edgeStyle=orthogonalEdgeStyle;rounded=0;orthogonalLoop=1;jettySize=auto;html=1;entryX=-0.005;entryY=0.642;entryDx=0;entryDy=0;entryPerimeter=0;" parent="1" source="1pu9NDr5MAKM0OqJgRPf-3" target="bIbstpp4uyazpAWY5vHL-93" edge="1">
          <mxGeometry relative="1" as="geometry" />
        </mxCell>
        <mxCell id="bIbstpp4uyazpAWY5vHL-130" value="Fecha" style="ellipse;whiteSpace=wrap;html=1;align=center;" parent="1" vertex="1">
          <mxGeometry x="590" y="115" width="100" height="40" as="geometry" />
        </mxCell>
        <mxCell id="bIbstpp4uyazpAWY5vHL-131" value="Valor" style="ellipse;whiteSpace=wrap;html=1;align=center;" parent="1" vertex="1">
          <mxGeometry x="590" y="165" width="100" height="40" as="geometry" />
        </mxCell>
        <mxCell id="bIbstpp4uyazpAWY5vHL-132" value="Cantidad" style="ellipse;whiteSpace=wrap;html=1;align=center;" parent="1" vertex="1">
          <mxGeometry x="792.5" y="524" width="100" height="40" as="geometry" />
        </mxCell>
        <mxCell id="bIbstpp4uyazpAWY5vHL-134" value="CÃ³digo Cliente" style="ellipse;whiteSpace=wrap;html=1;align=center;fontStyle=4;" parent="1" vertex="1">
          <mxGeometry x="153" y="231" width="87" height="40" as="geometry" />
        </mxCell>
        <mxCell id="bIbstpp4uyazpAWY5vHL-136" value="CÃ³digo Editorial" style="ellipse;whiteSpace=wrap;html=1;align=center;fontStyle=4;" parent="1" vertex="1">
          <mxGeometry x="602.5" y="724" width="100" height="40" as="geometry" />
        </mxCell>
        <mxCell id="bIbstpp4uyazpAWY5vHL-138" value="CÃ³digo Cliente" style="ellipse;whiteSpace=wrap;html=1;align=center;fontStyle=4;" parent="1" vertex="1">
          <mxGeometry x="590" y="15" width="100" height="40" as="geometry" />
        </mxCell>
        <mxCell id="bIbstpp4uyazpAWY5vHL-140" value="CÃ³digo Editorial" style="ellipse;whiteSpace=wrap;html=1;align=center;fontStyle=4;" parent="1" vertex="1">
          <mxGeometry x="283" y="524" width="100" height="40" as="geometry" />
        </mxCell>
        <mxCell id="bIbstpp4uyazpAWY5vHL-142" value="CÃ³digo Editorial" style="ellipse;whiteSpace=wrap;html=1;align=center;fontStyle=4;" parent="1" vertex="1">
          <mxGeometry x="792.5" y="579" width="100" height="40" as="geometry" />
        </mxCell>
        <mxCell id="bIbstpp4uyazpAWY5vHL-147" value="CÃ³digo Pedido" style="ellipse;whiteSpace=wrap;html=1;align=center;fontStyle=4;" parent="1" vertex="1">
          <mxGeometry x="590" y="65" width="100" height="40" as="geometry" />
        </mxCell>
        <mxCell id="bIbstpp4uyazpAWY5vHL-150" value="Cantidad" style="ellipse;whiteSpace=wrap;html=1;align=center;" parent="1" vertex="1">
          <mxGeometry x="592.5" y="331" width="100" height="40" as="geometry" />
        </mxCell>
        <mxCell id="bIbstpp4uyazpAWY5vHL-151" value="Valor" style="ellipse;whiteSpace=wrap;html=1;align=center;" parent="1" vertex="1">
          <mxGeometry x="592.5" y="384" width="100" height="40" as="geometry" />
        </mxCell>
        <mxCell id="bIbstpp4uyazpAWY5vHL-157" value="CÃ³digo Pedido" style="ellipse;whiteSpace=wrap;html=1;align=center;fontStyle=4;" parent="1" vertex="1">
          <mxGeometry x="590" y="234" width="100" height="40" as="geometry" />
        </mxCell>
        <mxCell id="bIbstpp4uyazpAWY5vHL-159" value="CÃ³digo de Libro" style="ellipse;whiteSpace=wrap;html=1;align=center;fontStyle=4;" parent="1" vertex="1">
          <mxGeometry x="263" y="479" width="100" height="40" as="geometry" />
        </mxCell>
        <mxCell id="bIbstpp4uyazpAWY5vHL-161" value="CÃ³digo de Libro" style="ellipse;whiteSpace=wrap;html=1;align=center;fontStyle=4;" parent="1" vertex="1">
          <mxGeometry x="792.5" y="630" width="100" height="40" as="geometry" />
        </mxCell>
        <mxCell id="bIbstpp4uyazpAWY5vHL-163" value="CÃ³digo de Libro" style="ellipse;whiteSpace=wrap;html=1;align=center;fontStyle=4;" parent="1" vertex="1">
          <mxGeometry x="591.5" y="282" width="100" height="40" as="geometry" />
        </mxCell>
      </root>
    </mxGraphModel>
  </diagram>
</mxfile>
